<?xml version="1.0" encoding="utf-8"?>
<!-- Generator: Adobe Illustrator 27.2.0, SVG Export Plug-In . SVG Version: 6.00 Build 0)  -->
<svg version="1.1" id="Layer_1" xmlns="http://www.w3.org/2000/svg" xmlns:xlink="http://www.w3.org/1999/xlink" x="0px" y="0px"
	 viewBox="0 0 701.21 632.17" style="enable-background:new 0 0 701.21 632.17;" xml:space="preserve">
<style type="text/css">
	.st0{fill:#414042;}
	.st1{fill:url(#XMLID_00000048475956113075662290000002159374965831248555_);}
	.st2{fill:none;}
	.st3{fill:url(#XMLID_00000160899414024623483160000011265272232877153722_);}
	.st4{fill:url(#XMLID_00000019664436304567268140000012087170752268195737_);}
	.st5{fill:url(#XMLID_00000018217629828905943690000011021610732214683275_);}
	.st6{filter:url(#Adobe_OpacityMaskFilter);}
	
		.st7{clip-path:url(#XMLID_00000070091961688948629910000009753663961100770976_);fill:url(#XMLID_00000020357888825570930300000005686951888790088847_);}
	
		.st8{clip-path:url(#XMLID_00000070091961688948629910000009753663961100770976_);mask:url(#XMLID_00000080190719672640105730000007879607519808118924_);fill:url(#XMLID_00000102503615588620203660000011925744943580352178_);}
	.st9{fill:url(#XMLID_00000095318982078537014270000003785909464733399445_);}
	.st10{filter:url(#Adobe_OpacityMaskFilter_00000012452619284099380080000016479517015907682697_);}
	.st11{fill:url(#XMLID_00000087400513796316655710000009788588073446109601_);}
	
		.st12{mask:url(#XMLID_00000169524651237083794820000001635525503117610145_);fill:url(#XMLID_00000176761598242229268880000013471125940424086153_);}
	.st13{filter:url(#Adobe_OpacityMaskFilter_00000103241332760496723730000009444985236505278877_);}
	.st14{fill:url(#XMLID_00000178911067452815286920000009891483142638138809_);}
	
		.st15{mask:url(#XMLID_00000032649579436888103170000016397003727583640761_);fill:url(#XMLID_00000168076016758191872110000003377839884985188505_);}
	.st16{filter:url(#Adobe_OpacityMaskFilter_00000074401157357967180950000010808116646708640647_);}
	.st17{fill:url(#XMLID_00000084500153339405091530000009572225307569951137_);}
	
		.st18{mask:url(#XMLID_00000014634883725814393700000003209096481220403870_);fill:url(#XMLID_00000076594532214829020900000004720974239289248956_);}
	.st19{fill:url(#XMLID_00000011722029910556098540000004204250814264422799_);}
	.st20{fill:url(#XMLID_00000036228318333294413550000004624804539557002131_);}
	.st21{fill:url(#XMLID_00000041257523499241618770000004156209982172895875_);}
	.st22{fill:url(#XMLID_00000115507991365840504540000011961099439928695938_);}
	.st23{fill:url(#XMLID_00000000928717411496515660000006878282393490197903_);}
	.st24{fill:url(#XMLID_00000016758998481678022220000013713619963969003668_);}
</style>
<g id="XMLID_2795_">
	<g id="XMLID_3309_">
		<path id="XMLID_3310_" class="st0" d="M543.61,141.59c-2.25,0-4.38-0.57-6.41-1.72c-2.03-1.15-3.61-2.73-4.75-4.76
			c-1.13-2.03-1.7-4.16-1.7-6.38c0-2.27,0.58-4.43,1.74-6.48c1.16-2.05,2.74-3.63,4.76-4.73c2.02-1.1,4.14-1.65,6.36-1.65
			c2.2,0,4.31,0.55,6.34,1.65c2.03,1.1,3.62,2.68,4.78,4.73c1.16,2.05,1.74,4.21,1.74,6.48c0,2.22-0.57,4.35-1.7,6.38
			c-1.13,2.03-2.72,3.62-4.76,4.76C547.97,141.01,545.83,141.59,543.61,141.59z M543.61,139.08c1.81,0,3.53-0.46,5.16-1.37
			s2.9-2.19,3.82-3.83c0.92-1.64,1.38-3.35,1.38-5.14c0-1.83-0.47-3.58-1.41-5.23c-0.94-1.65-2.22-2.92-3.85-3.8
			c-1.63-0.88-3.32-1.32-5.09-1.32c-1.77,0-3.46,0.44-5.09,1.32c-1.63,0.88-2.91,2.15-3.83,3.8c-0.93,1.65-1.39,3.39-1.39,5.23
			c0,1.79,0.45,3.5,1.36,5.14c0.9,1.64,2.18,2.92,3.82,3.83C540.11,138.62,541.82,139.08,543.61,139.08z M549.66,135.6h-3.4
			l-1.13-2.23c-0.78-1.49-1.42-2.42-1.93-2.8c-0.5-0.38-1.15-0.57-1.93-0.57h-0.72v5.6h-2.75v-13.65c4.45,0,6.82,0.01,7.12,0.03
			c0.92,0.07,1.63,0.25,2.15,0.53c0.51,0.29,0.94,0.72,1.27,1.31c0.33,0.58,0.5,1.24,0.5,1.98c0,0.99-0.32,1.83-0.96,2.53
			c-0.64,0.7-1.54,1.13-2.68,1.29c0.41,0.16,0.73,0.33,0.95,0.52c0.22,0.18,0.52,0.53,0.91,1.03
			C547.19,131.33,548.06,132.81,549.66,135.6z M541.69,127.83c1.6,0,2.6-0.06,2.97-0.19c0.38-0.13,0.68-0.34,0.91-0.64
			c0.23-0.3,0.34-0.65,0.34-1.07c0-0.82-0.41-1.37-1.24-1.65c-0.41-0.11-1.79-0.17-4.13-0.17v3.71H541.69z"/>
	</g>
	
		<linearGradient id="XMLID_00000149349244007375788070000009318968027618884995_" gradientUnits="userSpaceOnUse" x1="350.6045" y1="521.941" x2="350.6045" y2="137.4106">
		<stop  offset="0" style="stop-color:#FFFFFF"/>
		<stop  offset="1" style="stop-color:#E6E7E8"/>
	</linearGradient>
	
		<circle id="XMLID_3308_" style="fill:url(#XMLID_00000149349244007375788070000009318968027618884995_);" cx="350.6" cy="321.74" r="200.2"/>
	<path id="XMLID_3307_" class="st2" d="M150.4,321.73c0,110.57,89.64,200.21,200.21,200.21s200.21-89.63,200.21-200.21
		c0-110.57-89.64-200.21-200.21-200.21S150.4,211.17,150.4,321.73"/>
	
		<linearGradient id="XMLID_00000091008845072536482450000009233908983530556343_" gradientUnits="userSpaceOnUse" x1="144.7378" y1="321.7361" x2="556.4712" y2="321.7361">
		<stop  offset="0" style="stop-color:#60C5C1"/>
		<stop  offset="0.1022" style="stop-color:#60BFBF"/>
		<stop  offset="0.2554" style="stop-color:#5EB3BD"/>
		<stop  offset="0.4406" style="stop-color:#5C9FB9"/>
		<stop  offset="0.6509" style="stop-color:#5A84B1"/>
		<stop  offset="0.8792" style="stop-color:#5764A7"/>
		<stop  offset="0.9995" style="stop-color:#5551A2"/>
	</linearGradient>
	<path id="XMLID_3304_" style="fill:url(#XMLID_00000091008845072536482450000009233908983530556343_);" d="M156.06,321.73
		c0-107.27,87.27-194.54,194.55-194.54s194.55,87.27,194.55,194.54c0,107.28-87.27,194.55-194.55,194.55
		S156.06,429.01,156.06,321.73 M144.74,321.73c0,113.52,92.35,205.87,205.87,205.87s205.87-92.35,205.87-205.87
		c0-113.51-92.35-205.86-205.87-205.86S144.74,208.22,144.74,321.73"/>
	
		<linearGradient id="XMLID_00000072245636771557810280000012774533797491246994_" gradientUnits="userSpaceOnUse" x1="168.7785" y1="321.7361" x2="532.4305" y2="321.7361">
		<stop  offset="0" style="stop-color:#FFFFFF"/>
		<stop  offset="1" style="stop-color:#E6E7E8"/>
	</linearGradient>
	
		<circle id="XMLID_3303_" style="fill:url(#XMLID_00000072245636771557810280000012774533797491246994_);" cx="350.6" cy="321.74" r="181.83"/>
	
		<linearGradient id="XMLID_00000034063618533287300780000015646169927200803994_" gradientUnits="userSpaceOnUse" x1="181.0017" y1="321.7336" x2="520.2047" y2="321.7336">
		<stop  offset="0" style="stop-color:#EC233B"/>
		<stop  offset="0.9995" style="stop-color:#942B1F"/>
	</linearGradient>
	<path id="XMLID_3302_" style="fill:url(#XMLID_00000034063618533287300780000015646169927200803994_);" d="M333.99,152.78
		c-5.37,0.52-10.64,1.32-15.83,2.32c71.13,0.48,131.83,54.66,138.87,127.02c7.53,77.31-49.04,146.09-126.36,153.62
		c-69.74,6.79-132.52-38.59-149.67-104.29c0.13,2.24,0.26,4.48,0.48,6.73c9.09,93.31,92.09,161.59,185.4,152.5
		c93.31-9.09,161.59-92.09,152.5-185.4c-8.54-87.72-82.41-153.32-168.75-153.32C345.14,151.97,339.58,152.24,333.99,152.78"/>
	<g id="XMLID_3297_">
		<defs>
			<path id="XMLID_3298_" d="M451.93,186.65c30.19,29.85,47.06,69.69,47.52,112.2c0.46,42.83-15.79,83.27-45.75,113.87
				c-29.95,30.61-70.03,47.72-112.85,48.17c-0.57,0.01-1.15,0.01-1.72,0.01c-76.58,0-142.58-54.13-157.31-129.3l-1.58,0.2
				c0.13,2.46,0.28,4.51,0.47,6.45l0.9-0.08c17.21,72.66,82.31,124.35,157.52,124.35c0.58,0,1.17-0.01,1.75-0.02
				c43.24-0.45,83.71-17.73,113.97-48.65c30.25-30.91,46.66-71.76,46.2-115.01c-0.45-42.93-17.5-83.18-47.99-113.32L451.93,186.65z"
				/>
		</defs>
		<clipPath id="XMLID_00000096768760901029074250000008693630145070019763_">
			<use xlink:href="#XMLID_3298_"  style="overflow:visible;"/>
		</clipPath>
		<defs>
			<filter id="Adobe_OpacityMaskFilter" filterUnits="userSpaceOnUse" x="48.69" y="32.93" width="584.37" height="582.15">
				<feColorMatrix  type="matrix" values="1 0 0 0 0  0 1 0 0 0  0 0 1 0 0  0 0 0 1 0"/>
			</filter>
		</defs>
		
			<mask maskUnits="userSpaceOnUse" x="48.69" y="32.93" width="584.37" height="582.15" id="XMLID_00000111880736147518028800000004788874112796261265_">
			<g id="XMLID_00000003785014453159001140000014268427399343679928_" class="st6">
				
					<linearGradient id="XMLID_00000015322595989918509920000008417132228064563646_" gradientUnits="userSpaceOnUse" x1="111.5456" y1="510.2914" x2="114.1069" y2="510.2914" gradientTransform="matrix(73.6863 -101.8403 -101.8403 -73.6863 44005.3164 49401.9727)">
					<stop  offset="0" style="stop-color:#000000"/>
					<stop  offset="0.4916" style="stop-color:#FFFFFF"/>
					<stop  offset="1" style="stop-color:#000000"/>
				</linearGradient>
				
					<polygon id="XMLID_00000093160222983017181710000011028016666207744150_" style="clip-path:url(#XMLID_00000096768760901029074250000008693630145070019763_);fill:url(#XMLID_00000015322595989918509920000008417132228064563646_);" points="
					48.69,367.32 290.63,32.93 633.05,280.69 391.11,615.08 				"/>
			</g>
		</mask>
		
			<linearGradient id="XMLID_00000078740189454850425440000012326260025236990080_" gradientUnits="userSpaceOnUse" x1="111.5456" y1="510.2914" x2="114.1069" y2="510.2914" gradientTransform="matrix(73.6863 -101.8403 -101.8403 -73.6863 44005.3164 49401.9727)">
			<stop  offset="0" style="stop-color:#F58345"/>
			<stop  offset="0.4916" style="stop-color:#F58345"/>
			<stop  offset="1" style="stop-color:#F58345"/>
		</linearGradient>
		
			<polygon id="XMLID_3299_" style="clip-path:url(#XMLID_00000096768760901029074250000008693630145070019763_);mask:url(#XMLID_00000111880736147518028800000004788874112796261265_);fill:url(#XMLID_00000078740189454850425440000012326260025236990080_);" points="
			48.69,367.32 290.63,32.93 633.05,280.69 391.11,615.08 		"/>
	</g>
	
		<linearGradient id="XMLID_00000070105802796595974840000014992740289679219336_" gradientUnits="userSpaceOnUse" x1="250.926" y1="293.8329" x2="430.3635" y2="293.8329">
		<stop  offset="0" style="stop-color:#60C5C1"/>
		<stop  offset="0.9995" style="stop-color:#5551A2"/>
	</linearGradient>
	<path id="XMLID_3296_" style="fill:url(#XMLID_00000070105802796595974840000014992740289679219336_);" d="M267.22,182.66
		c-9,0-16.3,7.29-16.3,16.29v62.14c0,31.02,73.05,21.06,80.78,59.89c0.44,2.17,0.66,4.5,0.66,6.99v27.66
		c0,9.29-7.53,16.82-16.8,16.82s-16.8-7.53-16.8-16.82v-27.66c0-32.06-47.84-26.89-47.84-47.02v107.78c0,9,7.29,16.29,16.3,16.29
		h51.97c30.7,0,58.5-12.45,78.62-32.56c11.93-11.94,21.17-26.58,26.71-42.93c0.01-0.02,0.01-0.02,0.01-0.03
		c11.52-46.7-103.49-33.43-122.98-73.55c-1.8-3.69-2.78-7.84-2.78-12.54v-11.37c0-9.28,7.53-16.8,16.8-16.8
		c4.64,0,8.84,1.88,11.89,4.92c3.04,3.05,4.92,7.25,4.92,11.89v11.37c0,44.48,98.79,23.43,97.46,61.33
		c0.36-3.59,0.53-7.23,0.53-10.9c0-61.41-49.77-111.18-111.17-111.18H267.22z"/>
	<path id="XMLID_3293_" class="st2" d="M298.76,232.04c0-0.04,0-0.09,0-0.13C298.76,231.96,298.76,232,298.76,232.04 M298.76,231.91
		c0.07-9.23,7.57-16.68,16.8-16.68c4.64,0,8.84,1.88,11.89,4.92c3.04,3.05,4.92,7.25,4.92,11.89v11.37
		c0,44.48,98.79,23.43,97.46,61.33c0.36-3.59,0.53-7.23,0.53-10.9c0-43.82-25.36-81.7-62.19-99.82c-0.58-0.28-1.17-0.57-1.75-0.84
		c-0.08-0.04-0.16-0.07-0.25-0.11c-6.84-3.15-13.58-4.53-19.98-4.53C319.74,188.54,298.85,212.08,298.76,231.91"/>
	<defs>
		
			<filter id="Adobe_OpacityMaskFilter_00000070831898696327437920000003324283510334143679_" filterUnits="userSpaceOnUse" x="298.76" y="188.54" width="67.41" height="43.5">
			<feColorMatrix  type="matrix" values="1 0 0 0 0  0 1 0 0 0  0 0 1 0 0  0 0 0 1 0"/>
		</filter>
	</defs>
	
		<mask maskUnits="userSpaceOnUse" x="298.76" y="188.54" width="67.41" height="43.5" id="XMLID_00000124850320980401737020000002632109278178577849_">
		
			<g id="XMLID_00000162332561209216052450000006939311176710535300_" style="filter:url(#Adobe_OpacityMaskFilter_00000070831898696327437920000003324283510334143679_);">
			
				<linearGradient id="XMLID_00000169545459006505495610000015923348087684346017_" gradientUnits="userSpaceOnUse" x1="111.2566" y1="501.9564" x2="113.8179" y2="501.9564" gradientTransform="matrix(26.6182 0 0 -26.6182 -2663.23 13810.4111)">
				<stop  offset="0" style="stop-color:#000000"/>
				<stop  offset="0.4916" style="stop-color:#FFFFFF"/>
				<stop  offset="1" style="stop-color:#000000"/>
			</linearGradient>
			
				<rect id="XMLID_00000175288247038342313730000015440965846002024325_" x="-272.72" y="-47.23" style="fill:url(#XMLID_00000169545459006505495610000015923348087684346017_);" width="1227.21" height="992.94"/>
		</g>
	</mask>
	
		<linearGradient id="XMLID_00000119818056239942187650000008008046282646415779_" gradientUnits="userSpaceOnUse" x1="111.2566" y1="510.9335" x2="113.8179" y2="510.9335" gradientTransform="matrix(26.6182 0 0 -26.6182 -2663.2314 13810.4209)">
		<stop  offset="0" style="stop-color:#61BC5D"/>
		<stop  offset="0.4916" style="stop-color:#61BC5D"/>
		<stop  offset="1" style="stop-color:#61BC5D"/>
	</linearGradient>
	
		<path id="XMLID_3290_" style="mask:url(#XMLID_00000124850320980401737020000002632109278178577849_);fill:url(#XMLID_00000119818056239942187650000008008046282646415779_);" d="
		M366.17,193.07c-6.84-3.15-13.57-4.53-19.98-4.53c-26.51,0-47.43,23.64-47.43,43.5l0,0c0-19.86,20.92-43.5,47.43-43.5
		C352.6,188.54,359.33,189.92,366.17,193.07L366.17,193.07z"/>
	<path id="XMLID_3289_" class="st2" d="M250.93,388.72c0,9,7.29,16.29,16.3,16.29c49.93,0,65.15-31.66,65.15-49.39
		c0,9.29-7.53,16.82-16.8,16.82s-16.8-7.53-16.8-16.82v-27.66c0-32.06-47.84-26.89-47.84-47.02V388.72z"/>
	<defs>
		
			<filter id="Adobe_OpacityMaskFilter_00000015350840933159670800000002143656333809920141_" filterUnits="userSpaceOnUse" x="267.22" y="355.63" width="65.15" height="49.39">
			<feColorMatrix  type="matrix" values="1 0 0 0 0  0 1 0 0 0  0 0 1 0 0  0 0 0 1 0"/>
		</filter>
	</defs>
	
		<mask maskUnits="userSpaceOnUse" x="267.22" y="355.63" width="65.15" height="49.39" id="XMLID_00000130648228268134906810000005252908322705349793_">
		
			<g id="XMLID_00000070111045914777568550000014652345061368013698_" style="filter:url(#Adobe_OpacityMaskFilter_00000015350840933159670800000002143656333809920141_);">
			
				<linearGradient id="XMLID_00000063621811219896544210000015326186366974335142_" gradientUnits="userSpaceOnUse" x1="110.4669" y1="504.2321" x2="113.0282" y2="504.2321" gradientTransform="matrix(25.6495 0 0 -25.6495 -2566.1992 13382.5361)">
				<stop  offset="0" style="stop-color:#000000"/>
				<stop  offset="0.4916" style="stop-color:#FFFFFF"/>
				<stop  offset="1" style="stop-color:#000000"/>
			</linearGradient>
			
				<rect id="XMLID_00000119823728991859834820000009408843278511133862_" x="-272.72" y="-47.23" style="fill:url(#XMLID_00000063621811219896544210000015326186366974335142_);" width="1227.21" height="992.94"/>
		</g>
	</mask>
	
		<linearGradient id="XMLID_00000075143165704525569500000014876685510461415071_" gradientUnits="userSpaceOnUse" x1="110.4669" y1="506.9193" x2="113.0282" y2="506.9193" gradientTransform="matrix(25.6495 0 0 -25.6495 -2566.2012 13382.5439)">
		<stop  offset="0" style="stop-color:#61BC5D"/>
		<stop  offset="0.4916" style="stop-color:#61BC5D"/>
		<stop  offset="1" style="stop-color:#61BC5D"/>
	</linearGradient>
	
		<path id="XMLID_3286_" style="mask:url(#XMLID_00000130648228268134906810000005252908322705349793_);fill:url(#XMLID_00000075143165704525569500000014876685510461415071_);" d="
		M267.22,405.01c49.93,0,65.15-31.66,65.15-49.39l0,0C332.37,373.35,317.15,405.01,267.22,405.01L267.22,405.01z"/>
	<path id="XMLID_3283_" class="st2" d="M298.76,349.63v-21.67c0-31.75-46.92-26.98-47.82-46.44
		C252.42,339.61,298.76,311.61,298.76,349.63 M250.94,281.52c-0.01-0.19-0.01-0.38-0.02-0.58
		C250.93,281.14,250.93,281.33,250.94,281.52"/>
	<defs>
		
			<filter id="Adobe_OpacityMaskFilter_00000117674110927575181140000015424125829563872918_" filterUnits="userSpaceOnUse" x="250.93" y="280.95" width="47.84" height="68.69">
			<feColorMatrix  type="matrix" values="1 0 0 0 0  0 1 0 0 0  0 0 1 0 0  0 0 0 1 0"/>
		</filter>
	</defs>
	
		<mask maskUnits="userSpaceOnUse" x="250.93" y="280.95" width="47.84" height="68.69" id="XMLID_00000092445786572717776420000015714461382187764373_">
		
			<g id="XMLID_00000106859990200940333310000001715284462860330933_" style="filter:url(#Adobe_OpacityMaskFilter_00000117674110927575181140000015424125829563872918_);">
			
				<linearGradient id="XMLID_00000124843125155189961830000012500199925518265000_" gradientUnits="userSpaceOnUse" x1="114.7246" y1="513.1206" x2="117.2859" y2="513.1206" gradientTransform="matrix(-5.1641 21.0867 21.0867 5.1641 -9852.8662 -4757.8491)">
				<stop  offset="0" style="stop-color:#000000"/>
				<stop  offset="0.4916" style="stop-color:#FFFFFF"/>
				<stop  offset="1" style="stop-color:#000000"/>
			</linearGradient>
			
				<polygon id="XMLID_00000062178931475230909160000014174773177559204007_" style="fill:url(#XMLID_00000124843125155189961830000012500199925518265000_);" points="
				1183.91,8.96 885.06,1229.25 -502.12,889.53 -203.28,-330.76 			"/>
		</g>
	</mask>
	
		<linearGradient id="XMLID_00000034776182194264885430000014310264412993511600_" gradientUnits="userSpaceOnUse" x1="114.7246" y1="508.698" x2="117.2859" y2="508.698" gradientTransform="matrix(-5.1641 21.0867 21.0867 5.1641 -9852.8545 -4757.8486)">
		<stop  offset="0" style="stop-color:#61BC5D"/>
		<stop  offset="0.4916" style="stop-color:#61BC5D"/>
		<stop  offset="1" style="stop-color:#61BC5D"/>
	</linearGradient>
	
		<path id="XMLID_3280_" style="mask:url(#XMLID_00000092445786572717776420000015714461382187764373_);fill:url(#XMLID_00000034776182194264885430000014310264412993511600_);" d="
		M250.93,280.95c1.19,58.85,47.84,30.54,47.84,68.69l0,0C298.76,311.49,252.11,339.8,250.93,280.95L250.93,280.95z"/>
	
		<radialGradient id="XMLID_00000054951202317712413320000008613907496808087742_" cx="370.422" cy="240.2467" r="74.6616" fx="370.2602" fy="243.7917" gradientUnits="userSpaceOnUse">
		<stop  offset="0" style="stop-color:#60C5C1"/>
		<stop  offset="0.1022" style="stop-color:#60BFBF"/>
		<stop  offset="0.2554" style="stop-color:#5EB3BD"/>
		<stop  offset="0.4406" style="stop-color:#5C9FB9"/>
		<stop  offset="0.6509" style="stop-color:#5A84B1"/>
		<stop  offset="0.8792" style="stop-color:#5764A7"/>
		<stop  offset="0.9995" style="stop-color:#5551A2"/>
	</radialGradient>
	<path id="XMLID_3277_" style="fill:url(#XMLID_00000054951202317712413320000008613907496808087742_);" d="M298.76,232.04
		c0-0.04,0-0.09,0-0.13C298.76,231.96,298.76,232,298.76,232.04 M298.76,231.91c0.07-9.23,7.57-16.68,16.8-16.68
		c4.64,0,8.84,1.88,11.89,4.92c3.04,3.05,4.92,7.25,4.92,11.89v11.37c0,44.48,98.79,23.43,97.46,61.33
		c0.36-3.59,0.53-7.23,0.53-10.9c0-43.82-25.36-81.7-62.19-99.82c-0.58-0.28-1.17-0.57-1.75-0.84c-0.08-0.04-0.16-0.07-0.25-0.11
		c-6.84-3.15-13.58-4.53-19.98-4.53C319.74,188.54,298.85,212.08,298.76,231.91"/>
	
		<linearGradient id="XMLID_00000008126284698163379710000011063717413145750685_" gradientUnits="userSpaceOnUse" x1="445.9525" y1="332.6509" x2="331.1885" y2="217.8869">
		<stop  offset="0" style="stop-color:#60C5C1"/>
		<stop  offset="0.1022" style="stop-color:#60BFBF"/>
		<stop  offset="0.2554" style="stop-color:#5EB3BD"/>
		<stop  offset="0.4406" style="stop-color:#5C9FB9"/>
		<stop  offset="0.6509" style="stop-color:#5A84B1"/>
		<stop  offset="0.8792" style="stop-color:#5764A7"/>
		<stop  offset="0.9995" style="stop-color:#5551A2"/>
	</linearGradient>
	<path id="XMLID_3276_" style="fill:url(#XMLID_00000008126284698163379710000011063717413145750685_);" d="M332.37,243.34
		c0,42.86,91.69,24.89,97.18,57.44c0,0,0.02,0,0.02,0c0-39.26-56.43-65.54-83.3-65.54C337.88,235.24,332.37,237.81,332.37,243.34"/>
	
		<linearGradient id="XMLID_00000072244364336906826430000014940558694086613421_" gradientUnits="userSpaceOnUse" x1="564.7153" y1="147.7989" x2="243.7687" y2="468.7455">
		<stop  offset="0" style="stop-color:#EC233B"/>
		<stop  offset="0.9995" style="stop-color:#942B1F"/>
	</linearGradient>
	<path id="XMLID_3275_" style="fill:url(#XMLID_00000072244364336906826430000014940558694086613421_);" d="M500.25,298.84
		c0.95,88.99-70.43,161.91-159.38,162.85c-78.91,0.84-145.19-55.18-159.83-129.94c0.11,2.14,0.26,4.28,0.46,6.42
		c9.09,93.31,92.09,161.61,185.4,152.53c93.31-9.09,161.57-92.11,152.49-185.43c-4.8-49.3-30.23-91.6-66.9-119.18
		C481.59,214.85,499.77,254.68,500.25,298.84"/>
	
		<linearGradient id="XMLID_00000095299902177211026770000018158750011843715262_" gradientUnits="userSpaceOnUse" x1="250.926" y1="342.9786" x2="393.018" y2="342.9786">
		<stop  offset="0" style="stop-color:#60C5C1"/>
		<stop  offset="0.9995" style="stop-color:#5551A2"/>
	</linearGradient>
	<path id="XMLID_3274_" style="fill:url(#XMLID_00000095299902177211026770000018158750011843715262_);" d="M250.93,388.72
		c0,9,7.29,16.29,16.3,16.29h51.97c24.9,0,47.89-8.19,66.42-22.01c25.31-20.25-17.81-64.29-75.88-86.77
		c10.86,5.34,19.58,12.69,21.98,24.76c0.44,2.17,0.66,4.5,0.66,6.99v27.66c0,9.29-7.53,16.82-16.8,16.82s-16.8-7.53-16.8-16.82
		v-27.66c0-32.06-47.84-26.89-47.84-47.02V388.72z"/>
	
		<radialGradient id="XMLID_00000000214639095279624440000003500416320869675955_" cx="285.5527" cy="373.0586" r="68.142" fx="318.4332" fy="369.6958" gradientUnits="userSpaceOnUse">
		<stop  offset="0" style="stop-color:#5551A2"/>
		<stop  offset="1" style="stop-color:#60C5C1"/>
	</radialGradient>
	<path id="XMLID_3273_" style="fill:url(#XMLID_00000000214639095279624440000003500416320869675955_);" d="M250.93,388.72
		c0,9,7.29,16.29,16.3,16.29c49.93,0,65.15-31.66,65.15-49.39c0,9.29-7.53,16.82-16.8,16.82s-16.8-7.53-16.8-16.82v-27.66
		c0-32.06-47.84-26.89-47.84-47.02V388.72z"/>
	
		<linearGradient id="XMLID_00000009555129158798009910000011321385273026657726_" gradientUnits="userSpaceOnUse" x1="305.1027" y1="343.9247" x2="249.5294" y2="282.2043">
		<stop  offset="0" style="stop-color:#60C5C1"/>
		<stop  offset="0.1022" style="stop-color:#60BFBF"/>
		<stop  offset="0.2554" style="stop-color:#5EB3BD"/>
		<stop  offset="0.4406" style="stop-color:#5C9FB9"/>
		<stop  offset="0.6509" style="stop-color:#5A84B1"/>
		<stop  offset="0.8792" style="stop-color:#5764A7"/>
		<stop  offset="0.9995" style="stop-color:#5551A2"/>
	</linearGradient>
	<path id="XMLID_2796_" style="fill:url(#XMLID_00000009555129158798009910000011321385273026657726_);" d="M298.76,349.63v-21.67
		c0-31.75-46.92-26.98-47.82-46.44C252.42,339.61,298.76,311.61,298.76,349.63 M250.94,281.52c-0.01-0.19-0.01-0.38-0.02-0.58
		C250.93,281.14,250.93,281.33,250.94,281.52"/>
</g>
</svg>
